<svg width="24" height="24" viewBox="0 0 24 24" fill="none" xmlns="http://www.w3.org/2000/svg">
<path d="M18.9999 11H7.82992L12.7099 6.12001C13.0999 5.73001 13.0999 5.09001 12.7099 4.70001C12.6174 4.6073 12.5075 4.53375 12.3865 4.48357C12.2656 4.43339 12.1359 4.40756 12.0049 4.40756C11.874 4.40756 11.7443 4.43339 11.6233 4.48357C11.5023 4.53375 11.3924 4.6073 11.2999 4.70001L4.70992 11.29C4.61722 11.3825 4.54367 11.4924 4.49349 11.6134C4.44331 11.7344 4.41748 11.864 4.41748 11.995C4.41748 12.126 4.44331 12.2557 4.49349 12.3766C4.54367 12.4976 4.61722 12.6075 4.70992 12.7L11.2999 19.29C11.3925 19.3826 11.5024 19.456 11.6234 19.5061C11.7443 19.5562 11.874 19.582 12.0049 19.582C12.1359 19.582 12.2655 19.5562 12.3865 19.5061C12.5074 19.456 12.6173 19.3826 12.7099 19.29C12.8025 19.1974 12.8759 19.0875 12.9261 18.9665C12.9762 18.8456 13.0019 18.7159 13.0019 18.585C13.0019 18.4541 12.9762 18.3244 12.9261 18.2035C12.8759 18.0825 12.8025 17.9726 12.7099 17.88L7.82992 13H18.9999C19.5499 13 19.9999 12.55 19.9999 12C19.9999 11.45 19.5499 11 18.9999 11Z" fill="black"/>
</svg>
