<svg width="812" height="306" viewBox="0 0 812 306" fill="none" xmlns="http://www.w3.org/2000/svg">
<path d="M34.1413 223.328L27.3466 232.044C15.0606 247.805 26.2913 270.799 46.275 270.799H830.746C844.099 270.799 854.885 259.899 854.744 246.546L852.848 66.5364C852.781 60.0916 850.123 53.9449 845.475 49.4802L803.009 8.69122C794.572 0.588203 781.523 -0.252591 772.117 6.70079L725.999 40.7919C714.254 49.4742 697.542 45.7401 690.609 32.8844L686.387 25.0555C676.714 7.1196 650.501 8.63845 642.964 27.5714L590.052 160.496C584.972 173.26 570.233 179.163 557.747 173.434L442.136 120.397C430.349 114.99 416.441 120.604 411.712 132.679C405.739 147.931 386.016 151.938 374.563 140.226L301.715 65.7229C291.624 55.4036 274.774 56.26 265.782 67.5492L218.802 126.53C212.381 134.592 199.721 133.081 195.378 123.734C190.506 113.251 175.701 112.979 170.447 123.276L118.766 224.585C111.539 238.752 92.7803 242.099 81.0993 231.306L69.3574 220.456C59.0403 210.923 42.7775 212.249 34.1413 223.328Z" fill="url(#paint0_linear_29_11)"/>
<path d="M-2.86426 270.799L34.1413 223.328C42.7776 212.249 59.0404 210.923 69.3574 220.456L81.0994 231.306C92.7804 242.099 111.539 238.752 118.766 224.585L170.447 123.276C175.701 112.979 190.506 113.251 195.378 123.734C199.721 133.081 212.381 134.592 218.802 126.53L265.782 67.5492C274.774 56.26 291.624 55.4036 301.715 65.7229L374.564 140.226C386.016 151.938 405.739 147.931 411.713 132.679C416.442 120.604 430.35 114.99 442.136 120.397L557.747 173.434C570.234 179.163 584.972 173.26 590.053 160.496L642.964 27.5714C650.501 8.63845 676.714 7.1196 686.387 25.0555L690.609 32.8844C697.542 45.7401 714.254 49.4742 725.999 40.7919L772.117 6.70079C781.523 -0.252589 794.573 0.588201 803.009 8.69122L852.742 56.4605" stroke="#FFAB2D" stroke-width="4"/>
<path d="M36.9379 237.514L5.57579 263.652C0.141814 268.181 -3 274.889 -3 281.963C-3 295.127 7.67191 305.799 20.8364 305.799H828.356C841.611 305.799 852.356 295.054 852.356 281.799V144.903C852.356 136.622 848.087 128.926 841.061 124.542L799.232 98.4398C792.26 94.0888 783.546 93.6083 776.137 97.1664L720.292 123.986C710.365 128.753 698.468 126.154 691.435 117.681L683.065 107.597C672.56 94.9419 652.726 96.3635 644.134 110.388L590.041 198.673C584.358 207.948 573.147 212.241 562.722 209.134L437.105 171.695C427.132 168.723 416.411 172.872 411.038 181.785C404.326 192.917 389.686 196.205 378.859 189.011L297.233 134.777C288.47 128.955 276.936 129.519 268.782 136.169L217.314 178.149C210.444 183.753 200.27 182.393 195.112 175.182C189.153 166.851 176.864 166.576 170.538 174.632L117.278 242.461C109.806 251.976 96.4209 254.443 86.0487 248.216L64.6559 235.374C55.9019 230.119 44.7813 230.977 36.9379 237.514Z" fill="url(#paint1_linear_29_11)"/>
<path d="M-3 270.799L36.9379 237.514C44.7813 230.977 55.9019 230.119 64.6559 235.374L86.0487 248.216C96.4209 254.443 109.806 251.976 117.278 242.461L170.538 174.632C176.864 166.576 189.153 166.851 195.112 175.182C200.27 182.393 210.444 183.753 217.314 178.149L268.782 136.169C276.936 129.519 288.47 128.955 297.234 134.777L378.859 189.011C389.686 196.205 404.326 192.917 411.038 181.785C416.411 172.872 427.132 168.723 437.105 171.695L562.722 209.134C573.147 212.241 584.358 207.948 590.041 198.673L644.134 110.388C652.726 96.3635 672.56 94.9419 683.065 107.597L691.435 117.681C698.468 126.154 710.365 128.753 720.292 123.986L776.137 97.1664C783.546 93.6083 792.26 94.0888 799.233 98.4398L852.356 131.589" stroke="#3B4CB8" stroke-opacity="0.73" stroke-width="4"/>
<defs>
<linearGradient id="paint0_linear_29_11" x1="426.068" y1="-20.2008" x2="426.068" y2="270.799" gradientUnits="userSpaceOnUse">
<stop stop-color="#FFAB2D"/>
<stop offset="1" stop-color="#FFAB2D" stop-opacity="0"/>
</linearGradient>
<linearGradient id="paint1_linear_29_11" x1="424.678" y1="81.7992" x2="424.678" y2="305.799" gradientUnits="userSpaceOnUse">
<stop stop-color="#3B4CB8" stop-opacity="0.73"/>
<stop offset="1" stop-color="#4C50BC" stop-opacity="0"/>
</linearGradient>
</defs>
</svg>
