<svg width="20" height="20" viewBox="0 0 20 20" fill="none" xmlns="http://www.w3.org/2000/svg">
<path d="M14.854 2.14602C14.7601 2.05213 14.6328 1.99939 14.5 1.99939C14.3672 1.99939 14.2399 2.05213 14.146 2.14602C14.0521 2.23991 13.9994 2.36725 13.9994 2.50002C13.9994 2.6328 14.0521 2.76013 14.146 2.85402L15.293 4.00002H4C3.46957 4.00002 2.96086 4.21073 2.58579 4.58581C2.21071 4.96088 2 5.46959 2 6.00002V12.5C2 12.6326 2.05268 12.7598 2.14645 12.8536C2.24021 12.9473 2.36739 13 2.5 13C2.63261 13 2.75979 12.9473 2.85355 12.8536C2.94732 12.7598 3 12.6326 3 12.5V6.00002C3 5.7348 3.10536 5.48045 3.29289 5.29291C3.48043 5.10538 3.73478 5.00002 4 5.00002H15.293L14.146 6.14602C14.0521 6.23991 13.9994 6.36725 13.9994 6.50002C13.9994 6.6328 14.0521 6.76013 14.146 6.85402C14.2399 6.94791 14.3672 7.00065 14.5 7.00065C14.6328 7.00065 14.7601 6.94791 14.854 6.85402L16.854 4.85402C16.9006 4.80758 16.9375 4.7524 16.9627 4.69165C16.9879 4.63091 17.0009 4.56579 17.0009 4.50002C17.0009 4.43425 16.9879 4.36913 16.9627 4.30839C16.9375 4.24764 16.9006 4.19247 16.854 4.14602L14.854 2.14602ZM16 15C16.2652 15 16.5196 14.8947 16.7071 14.7071C16.8946 14.5196 17 14.2652 17 14V7.50002C17 7.36741 17.0527 7.24024 17.1464 7.14647C17.2402 7.0527 17.3674 7.00002 17.5 7.00002C17.6326 7.00002 17.7598 7.0527 17.8536 7.14647C17.9473 7.24024 18 7.36741 18 7.50002V14C18 14.5305 17.7893 15.0392 17.4142 15.4142C17.0391 15.7893 16.5304 16 16 16H4.707L5.854 17.146C5.94789 17.2399 6.00063 17.3672 6.00063 17.5C6.00063 17.6328 5.94789 17.7601 5.854 17.854C5.76011 17.9479 5.63278 18.0007 5.5 18.0007C5.36722 18.0007 5.23989 17.9479 5.146 17.854L3.146 15.854C3.09944 15.8076 3.06249 15.7524 3.03729 15.6917C3.01208 15.6309 2.99911 15.5658 2.99911 15.5C2.99911 15.4343 3.01208 15.3691 3.03729 15.3084C3.06249 15.2476 3.09944 15.1925 3.146 15.146L5.146 13.146C5.19249 13.0995 5.24768 13.0627 5.30842 13.0375C5.36916 13.0123 5.43426 12.9994 5.5 12.9994C5.56574 12.9994 5.63084 13.0123 5.69158 13.0375C5.75232 13.0627 5.80751 13.0995 5.854 13.146C5.90049 13.1925 5.93736 13.2477 5.96252 13.3084C5.98768 13.3692 6.00063 13.4343 6.00063 13.5C6.00063 13.5658 5.98768 13.6309 5.96252 13.6916C5.93736 13.7523 5.90049 13.8075 5.854 13.854L4.707 15H16ZM13 10C13 10.7957 12.6839 11.5587 12.1213 12.1213C11.5587 12.684 10.7956 13 10 13C9.20435 13 8.44129 12.684 7.87868 12.1213C7.31607 11.5587 7 10.7957 7 10C7 9.20437 7.31607 8.44131 7.87868 7.8787C8.44129 7.31609 9.20435 7.00002 10 7.00002C10.7956 7.00002 11.5587 7.31609 12.1213 7.8787C12.6839 8.44131 13 9.20437 13 10V10ZM12 10C12 9.46959 11.7893 8.96088 11.4142 8.58581C11.0391 8.21074 10.5304 8.00002 10 8.00002C9.46957 8.00002 8.96086 8.21074 8.58579 8.58581C8.21071 8.96088 8 9.46959 8 10C8 10.5305 8.21071 11.0392 8.58579 11.4142C8.96086 11.7893 9.46957 12 10 12C10.5304 12 11.0391 11.7893 11.4142 11.4142C11.7893 11.0392 12 10.5305 12 10Z" fill="white"/>
</svg>
