<svg width="425" height="90" viewBox="0 0 425 90" fill="none" xmlns="http://www.w3.org/2000/svg">
<path d="M415.993 28.3156L408.098 19.1777C395.414 4.49664 372.739 4.23978 359.726 18.6297L352.876 26.2037C344.278 35.7114 329.488 36.1299 320.366 27.1235C311.392 18.2626 296.89 18.5031 288.214 27.6568L286.059 29.931C278.332 38.0835 266.191 40.2414 256.128 35.2508L249.072 31.7511C235.221 24.8821 218.431 30.7275 211.84 44.7125C204.674 59.9207 185.691 65.2434 171.662 55.9782L152.215 43.135C136.954 33.0559 117.279 32.5718 101.54 41.8881L55.663 69.0451C50.6905 71.9885 45.0184 73.5414 39.2401 73.5414H15C10.5817 73.5414 7 77.1231 7 81.5414C7 85.9597 10.5817 89.5414 15 89.5414H387.978C408.425 89.5414 425 72.966 425 52.5191C425 43.6317 421.803 35.0408 415.993 28.3156Z" fill="#297fb8"/>
</svg>
