<svg width="404" height="476" viewBox="0 0 404 476" fill="none" xmlns="http://www.w3.org/2000/svg">
<g clip-path="url(#clip0_29_10)">
<path d="M20.9976 413.349L11.7937 423.602C-4.84852 442.14 -1.76067 475.75 16.9981 480.249L753.382 656.856C765.917 659.863 779.575 647.557 783.772 629.476L840.349 385.727C842.374 377 841.872 368.094 838.956 361.012L812.316 296.317C807.024 283.464 795.047 279.39 783.963 286.671L729.621 322.37C715.781 331.462 701.304 322.652 698.963 303.714L697.538 292.181C694.273 265.76 669.174 261.911 655.962 285.807L563.201 453.571C554.294 469.681 538.546 474.341 528.682 463.787L437.351 366.068C428.04 356.105 413.165 360.564 404.811 375.82C394.259 395.093 374.446 396.069 367.493 377.659L323.262 260.551C317.135 244.331 301.04 241.695 288.94 254.93L225.719 324.08C217.078 333.531 205.684 328.639 204.637 315.027C203.463 299.759 189.653 296.058 181.383 308.795L100.027 434.101C88.6503 451.624 69.9567 451.925 62.4909 434.705L54.986 417.396C48.3918 402.187 32.696 400.318 20.9976 413.349Z" fill="url(#paint0_linear_29_10)"/>
<path d="M-29.1289 469.186L20.9977 413.349C32.6962 400.318 48.392 402.187 54.9861 417.396L62.491 434.705C69.9569 451.925 88.6504 451.624 100.027 434.101L181.383 308.795C189.653 296.058 203.463 299.759 204.637 315.027C205.684 328.639 217.078 333.531 225.719 324.08L288.94 254.93C301.04 241.695 317.136 244.331 323.262 260.551L367.493 377.659C374.446 396.069 394.259 395.093 404.811 375.82C413.165 360.564 428.04 356.105 437.351 366.068L528.682 463.787C538.546 474.341 554.294 469.681 563.201 453.571L655.962 285.807C669.174 261.911 694.273 265.76 697.538 292.181L698.963 303.714C701.304 322.653 715.781 331.462 729.621 322.37L783.963 286.671C795.047 279.39 807.024 283.464 812.316 296.317L843.516 372.084" stroke="#ff8101" stroke-width="4"/>
</g>
<defs>
<linearGradient id="paint0_linear_29_10" x1="467.847" y1="172.402" x2="373.51" y2="565.752" gradientUnits="userSpaceOnUse">
<stop stop-color="#ff8101"/>
<stop offset="1" stop-color="#ff810169" stop-opacity="0"/>
</linearGradient>
<clipPath id="clip0_29_10">
<rect width="404" height="476" fill="white"/>
</clipPath>
</defs>
</svg>
