<svg width="54" height="54" viewBox="0 0 54 54" fill="none" xmlns="http://www.w3.org/2000/svg">
<path d="M42.1875 32.4844C40.6786 32.4805 39.2186 33.0196 38.0742 34.0031L32.6742 29.8055C33.1079 28.9341 33.3318 27.9733 33.3281 27C33.3281 26.7469 33.307 26.4937 33.2859 26.2406L36.7031 25.1016C37.4691 26.4321 38.6926 27.4389 40.1458 27.9342C41.599 28.4296 43.1828 28.3797 44.6019 27.7939C46.0211 27.2082 47.1789 26.1264 47.8596 24.7503C48.5403 23.3742 48.6975 21.7975 48.302 20.314C47.9064 18.8305 46.985 17.5415 45.7094 16.687C44.4338 15.8325 42.8912 15.4709 41.3688 15.6696C39.8464 15.8682 38.4481 16.6136 37.4345 17.7667C36.4209 18.9199 35.8611 20.4022 35.8594 21.9375C35.8594 22.1906 35.8805 22.4437 35.9016 22.6969L32.4844 23.8359C31.9286 22.8733 31.1291 22.0741 30.1664 21.5187C29.2036 20.9632 28.1115 20.6712 27 20.6719C26.5388 20.6676 26.0786 20.7171 25.6289 20.8195L23.9203 16.9594C25.1478 16.0813 26.0211 14.7934 26.3826 13.3281C26.744 11.8628 26.5699 10.3165 25.8915 8.96829C25.2132 7.62008 24.0753 6.5587 22.6833 5.97565C21.2912 5.39261 19.7366 5.32629 18.2999 5.78867C16.8632 6.25104 15.6391 7.21167 14.8484 8.49721C14.0577 9.78276 13.7525 11.3086 13.9879 12.7993C14.2233 14.2901 14.9837 15.6477 16.132 16.6271C17.2802 17.6066 18.7408 18.1433 20.25 18.1406C20.7112 18.1449 21.1714 18.0954 21.6211 17.993L23.3297 21.8531C22.5077 22.4362 21.8374 23.2079 21.375 24.1034C20.9125 24.9989 20.6714 25.9921 20.6719 27C20.6699 28.1133 20.9687 29.2065 21.5367 30.1641L15.6094 35.4375C14.5162 34.6118 13.1825 34.1673 11.8125 34.1719C10.5609 34.1719 9.33744 34.543 8.29679 35.2383C7.25613 35.9337 6.44504 36.922 5.96608 38.0783C5.48712 39.2346 5.3618 40.507 5.60597 41.7345C5.85014 42.9621 6.45284 44.0896 7.33784 44.9747C8.22285 45.8597 9.35041 46.4623 10.5779 46.7065C11.8055 46.9507 13.0779 46.8254 14.2342 46.3464C15.3905 45.8675 16.3788 45.0564 17.0741 44.0157C17.7695 42.9751 18.1406 41.7516 18.1406 40.5C18.1426 39.3867 17.8438 38.2935 17.2758 37.3359L23.2031 32.0625C24.354 32.9258 25.7647 33.3711 27.2027 33.3251C28.6406 33.2791 30.0199 32.7444 31.1133 31.8094L36.5133 36.007C36.0796 36.8784 35.8557 37.8391 35.8594 38.8125C35.8594 40.0641 36.2305 41.2876 36.9259 42.3282C37.6212 43.3689 38.6095 44.18 39.7658 44.6589C40.9221 45.1379 42.1945 45.2632 43.4221 45.019C44.6496 44.7748 45.7772 44.1722 46.6622 43.2872C47.5472 42.4021 48.1499 41.2746 48.394 40.047C48.6382 38.8195 48.5129 37.5471 48.0339 36.3908C47.555 35.2345 46.7439 34.2462 45.7032 33.5508C44.6626 32.8555 43.4391 32.4844 42.1875 32.4844V32.4844ZM42.1875 18.1406C42.9385 18.1406 43.6725 18.3633 44.2969 18.7805C44.9213 19.1977 45.408 19.7907 45.6954 20.4845C45.9827 21.1783 46.0579 21.9417 45.9114 22.6782C45.7649 23.4147 45.4033 24.0913 44.8723 24.6223C44.3413 25.1533 43.6648 25.5149 42.9282 25.6614C42.1917 25.8079 41.4283 25.7327 40.7345 25.4453C40.0407 25.158 39.4477 24.6713 39.0305 24.0469C38.6133 23.4225 38.3906 22.6884 38.3906 21.9375C38.3962 20.9322 38.798 19.9697 39.5088 19.2588C40.2197 18.548 41.1822 18.1462 42.1875 18.1406V18.1406ZM16.4531 11.8125C16.4531 11.0615 16.6758 10.3275 17.093 9.70306C17.5102 9.07867 18.1032 8.59201 18.797 8.30464C19.4908 8.01726 20.2542 7.94207 20.9907 8.08857C21.7273 8.23507 22.4038 8.59669 22.9348 9.1277C23.4658 9.6587 23.8274 10.3352 23.9739 11.0718C24.1204 11.8083 24.0452 12.5717 23.7579 13.2655C23.4705 13.9593 22.9838 14.5523 22.3594 14.9695C21.735 15.3867 21.001 15.6094 20.25 15.6094C19.2447 15.6038 18.2822 15.202 17.5713 14.4912C16.8605 13.7803 16.4587 12.8178 16.4531 11.8125V11.8125ZM11.8125 44.2969C11.0616 44.2969 10.3275 44.0742 9.70307 43.657C9.07868 43.2398 8.59202 42.6468 8.30465 41.953C8.01727 41.2592 7.94208 40.4958 8.08858 39.7593C8.23509 39.0227 8.5967 38.3462 9.12771 37.8152C9.65871 37.2842 10.3352 36.9226 11.0718 36.7761C11.8083 36.6296 12.5717 36.7048 13.2655 36.9921C13.9593 37.2795 14.5523 37.7662 14.9695 38.3906C15.3867 39.015 15.6094 39.749 15.6094 40.5C15.6038 41.5053 15.202 42.4678 14.4912 43.1787C13.7803 43.8895 12.8178 44.2913 11.8125 44.2969V44.2969ZM27 30.7969C26.2491 30.7969 25.515 30.5742 24.8906 30.157C24.2662 29.7398 23.7795 29.1468 23.4921 28.453C23.2048 27.7592 23.1296 26.9958 23.2761 26.2593C23.4226 25.5227 23.7842 24.8462 24.3152 24.3152C24.8462 23.7842 25.5227 23.4226 26.2593 23.2761C26.9958 23.1296 27.7592 23.2048 28.453 23.4921C29.1468 23.7795 29.7398 24.2662 30.157 24.8906C30.5742 25.515 30.7969 26.249 30.7969 27C30.7913 28.0053 30.3895 28.9678 29.6787 29.6787C28.9678 30.3895 28.0053 30.7913 27 30.7969ZM42.1875 42.6094C41.4366 42.6094 40.7025 42.3867 40.0781 41.9695C39.4537 41.5523 38.967 40.9593 38.6796 40.2655C38.3923 39.5717 38.3171 38.8083 38.4636 38.0718C38.6101 37.3352 38.9717 36.6587 39.5027 36.1277C40.0337 35.5967 40.7102 35.2351 41.4468 35.0886C42.1833 34.9421 42.9467 35.0173 43.6405 35.3046C44.3343 35.592 44.9273 36.0787 45.3445 36.7031C45.7617 37.3275 45.9844 38.0615 45.9844 38.8125C45.9788 39.8178 45.577 40.7803 44.8662 41.4912C44.1553 42.202 43.1928 42.6038 42.1875 42.6094V42.6094Z" fill="white"/>
</svg>
