<svg width="312" height="303" viewBox="0 0 312 303" fill="none" xmlns="http://www.w3.org/2000/svg">
<path fill-rule="evenodd" clip-rule="evenodd" d="M161 155.931C192.994 155.931 218.931 129.994 218.931 98C218.931 66.0056 192.994 40.069 161 40.069C129.006 40.069 103.069 66.0056 103.069 98C103.069 129.994 129.006 155.931 161 155.931ZM161 182C207.392 182 245 144.392 245 98C245 51.6081 207.392 14 161 14C114.608 14 77 51.6081 77 98C77 144.392 114.608 182 161 182Z" fill="white"/>
<path fill-rule="evenodd" clip-rule="evenodd" d="M161 61.5V25.0001C168.706 25.0001 176.352 26.2202 183.655 28.6045C185.437 29.1862 187.199 29.8373 188.936 30.5569C197.793 34.2254 205.84 39.6026 212.619 46.3813C219.397 53.1599 224.775 61.2074 228.443 70.0641C229.163 71.8013 229.814 73.5629 230.395 75.3449C232.78 82.6482 234 90.2938 234 98L197.5 98C197.5 93.2068 196.556 88.4604 194.722 84.0321C192.887 79.6037 190.199 75.58 186.809 72.1906C183.42 68.8013 179.396 66.1127 174.968 64.2784C170.54 62.4441 165.793 61.5 161 61.5Z" fill="#3C8AFF"/>
<path fill-rule="evenodd" clip-rule="evenodd" d="M190.529 119.454C190.533 119.448 190.538 119.442 190.542 119.436C195.064 113.204 197.5 105.701 197.5 98H234C234 105.674 232.791 113.249 230.458 120.461C230.438 120.526 230.417 120.591 230.395 120.655C228.044 127.857 224.572 134.693 220.065 140.898C220.063 140.902 220.061 140.905 220.058 140.908L190.529 119.454Z" fill="#ED3DD1"/>
<path fill-rule="evenodd" clip-rule="evenodd" d="M220.098 140.854C215.552 147.122 210.069 152.586 203.88 157.079C197.746 161.531 190.918 165.028 183.622 167.406C176.326 169.784 168.749 170.982 161.169 171C153.521 171.017 145.871 169.833 138.506 167.448L149.753 132.724C157.086 135.099 164.982 135.092 172.311 132.703C179.632 130.317 186.011 125.677 190.535 119.447C190.539 119.44 190.544 119.433 190.549 119.427L220.098 140.854Z" fill="#FFEE54"/>
<path fill-rule="evenodd" clip-rule="evenodd" d="M138.514 167.45C138.512 167.45 138.509 167.449 138.507 167.448C131.12 165.056 124.236 161.526 118.071 157.043C108.866 150.35 101.265 141.533 95.9911 131.209C90.717 120.884 88.0282 109.559 88.0002 98.1778C87.9815 90.5542 89.1566 82.9059 91.5484 75.5173C91.5488 75.5162 91.5492 75.5151 91.5495 75.514L126.275 86.757C126.274 86.7594 126.273 86.7618 126.272 86.7642C123.293 95.9719 124.093 105.986 128.496 114.604C132.898 123.223 140.543 129.74 149.75 132.723C149.752 132.724 149.755 132.724 149.757 132.725L138.514 167.45Z" fill="#FF5166"/>
<path fill-rule="evenodd" clip-rule="evenodd" d="M91.5378 75.5499C91.5389 75.5466 91.54 75.5433 91.541 75.54C93.9221 68.1765 97.4426 61.2863 101.935 55.1012C106.389 48.9683 111.799 43.5288 118 39.0087C124.201 34.4885 131.035 31.0034 138.237 28.6398C145.503 26.2551 153.144 25.0121 160.886 25.0001L160.943 61.5C160.94 61.5 160.937 61.5 160.934 61.5C153.229 61.514 145.726 63.9657 139.5 68.5043C133.271 73.0447 128.639 79.4404 126.269 86.7749L91.5378 75.5499Z" fill="#2BC844"/>
<path d="M255.63 34.86H262.546V33.236H258.416C260.04 31.864 262.322 30.016 262.322 27.65C262.322 25.872 261.216 24.57 259.018 24.57C257.184 24.57 255.686 25.648 255.616 27.986H257.52C257.534 26.908 258.052 26.236 258.99 26.236C259.956 26.236 260.362 26.852 260.362 27.762C260.362 29.638 257.94 31.444 255.63 33.404V34.86ZM264.313 24.766V30.758H266.189C266.399 30.128 266.917 29.68 267.729 29.68C268.835 29.68 269.409 30.31 269.409 31.458C269.409 32.536 268.891 33.348 267.743 33.348C266.791 33.348 266.217 32.83 266.049 32.116H264.145C264.313 33.782 265.573 35 267.771 35C270.095 35 271.299 33.516 271.299 31.43C271.299 29.848 270.487 28.056 268.107 28.056C267.253 28.056 266.483 28.42 266.105 28.882V26.488H270.641V24.766H264.313ZM272.567 27.3C272.567 28.77 273.519 29.582 274.793 29.582C276.067 29.582 277.019 28.77 277.019 27.3C277.019 25.844 276.067 25.032 274.793 25.032C273.519 25.032 272.567 25.844 272.567 27.3ZM274.779 26.208C275.269 26.208 275.577 26.53 275.577 27.3C275.577 28.07 275.269 28.406 274.779 28.406C274.303 28.406 274.009 28.07 274.009 27.3C274.009 26.53 274.303 26.208 274.779 26.208ZM274.149 35H276.053L281.555 25.2H279.637L274.149 35ZM278.713 32.886C278.713 34.37 279.665 35.168 280.939 35.168C282.199 35.168 283.137 34.37 283.137 32.886C283.137 31.416 282.199 30.618 280.939 30.618C279.665 30.618 278.713 31.416 278.713 32.886ZM280.925 31.794C281.401 31.794 281.709 32.116 281.709 32.886C281.709 33.67 281.401 33.992 280.925 33.992C280.435 33.992 280.127 33.67 280.127 32.886C280.127 32.116 280.435 31.794 280.925 31.794Z" fill="black" fill-opacity="0.45"/>
<path d="M271.862 136H273.878V125.794H270.504V127.6H271.862V136ZM275.814 130.764C275.814 133.746 276.71 135.972 279.594 135.972C282.478 135.972 283.374 133.746 283.374 130.764C283.374 127.81 282.478 125.598 279.594 125.598C276.71 125.598 275.814 127.81 275.814 130.764ZM281.442 130.764C281.442 132.584 281.246 134.152 279.594 134.152C277.942 134.152 277.746 132.584 277.746 130.764C277.746 129.014 277.942 127.418 279.594 127.418C281.246 127.418 281.442 129.014 281.442 130.764ZM284.641 128.3C284.641 129.77 285.593 130.582 286.867 130.582C288.141 130.582 289.093 129.77 289.093 128.3C289.093 126.844 288.141 126.032 286.867 126.032C285.593 126.032 284.641 126.844 284.641 128.3ZM286.853 127.208C287.343 127.208 287.651 127.53 287.651 128.3C287.651 129.07 287.343 129.406 286.853 129.406C286.377 129.406 286.083 129.07 286.083 128.3C286.083 127.53 286.377 127.208 286.853 127.208ZM286.223 136H288.127L293.629 126.2H291.711L286.223 136ZM290.787 133.886C290.787 135.37 291.739 136.168 293.013 136.168C294.273 136.168 295.211 135.37 295.211 133.886C295.211 132.416 294.273 131.618 293.013 131.618C291.739 131.618 290.787 132.416 290.787 133.886ZM292.999 132.794C293.475 132.794 293.783 133.116 293.783 133.886C293.783 134.67 293.475 134.992 292.999 134.992C292.509 134.992 292.201 134.67 292.201 133.886C292.201 133.116 292.509 132.794 292.999 132.794Z" fill="black" fill-opacity="0.45"/>
<path d="M235.862 197H237.878V186.794H234.504V188.6H235.862V197ZM240.346 186.766V192.758H242.222C242.432 192.128 242.95 191.68 243.762 191.68C244.868 191.68 245.442 192.31 245.442 193.458C245.442 194.536 244.924 195.348 243.776 195.348C242.824 195.348 242.25 194.83 242.082 194.116H240.178C240.346 195.782 241.606 197 243.804 197C246.128 197 247.332 195.516 247.332 193.43C247.332 191.848 246.52 190.056 244.14 190.056C243.286 190.056 242.516 190.42 242.138 190.882V188.488H246.674V186.766H240.346ZM248.6 189.3C248.6 190.77 249.552 191.582 250.826 191.582C252.1 191.582 253.052 190.77 253.052 189.3C253.052 187.844 252.1 187.032 250.826 187.032C249.552 187.032 248.6 187.844 248.6 189.3ZM250.812 188.208C251.302 188.208 251.61 188.53 251.61 189.3C251.61 190.07 251.302 190.406 250.812 190.406C250.336 190.406 250.042 190.07 250.042 189.3C250.042 188.53 250.336 188.208 250.812 188.208ZM250.182 197H252.086L257.588 187.2H255.67L250.182 197ZM254.746 194.886C254.746 196.37 255.698 197.168 256.972 197.168C258.232 197.168 259.17 196.37 259.17 194.886C259.17 193.416 258.232 192.618 256.972 192.618C255.698 192.618 254.746 193.416 254.746 194.886ZM256.958 193.794C257.434 193.794 257.742 194.116 257.742 194.886C257.742 195.67 257.434 195.992 256.958 195.992C256.468 195.992 256.16 195.67 256.16 194.886C256.16 194.116 256.468 193.794 256.958 193.794Z" fill="black" fill-opacity="0.45"/>
<path d="M31.77 163.482H33.688C33.758 162.838 34.164 162.222 35.116 162.222C36.012 162.222 36.502 162.698 36.502 163.496C36.502 164.504 35.662 164.826 34.514 164.826H34.108V166.436H34.514C35.97 166.436 36.698 166.856 36.698 168.004C36.698 168.816 36.194 169.432 35.214 169.432C34.164 169.432 33.576 168.802 33.534 167.92H31.63C31.714 170.062 33.24 171.07 35.256 171.07C37.398 171.07 38.574 169.838 38.574 168.172C38.574 166.786 37.888 165.946 36.852 165.624V165.568C37.594 165.316 38.392 164.532 38.392 163.258C38.392 161.746 37.272 160.556 35.172 160.556C33.212 160.556 31.868 161.592 31.77 163.482ZM40.1229 165.764C40.1229 168.746 41.0189 170.972 43.9029 170.972C46.7869 170.972 47.6829 168.746 47.6829 165.764C47.6829 162.81 46.7869 160.598 43.9029 160.598C41.0189 160.598 40.1229 162.81 40.1229 165.764ZM45.7509 165.764C45.7509 167.584 45.5549 169.152 43.9029 169.152C42.2509 169.152 42.0549 167.584 42.0549 165.764C42.0549 164.014 42.2509 162.418 43.9029 162.418C45.5549 162.418 45.7509 164.014 45.7509 165.764ZM48.9496 163.3C48.9496 164.77 49.9016 165.582 51.1756 165.582C52.4496 165.582 53.4016 164.77 53.4016 163.3C53.4016 161.844 52.4496 161.032 51.1756 161.032C49.9016 161.032 48.9496 161.844 48.9496 163.3ZM51.1616 162.208C51.6516 162.208 51.9596 162.53 51.9596 163.3C51.9596 164.07 51.6516 164.406 51.1616 164.406C50.6856 164.406 50.3916 164.07 50.3916 163.3C50.3916 162.53 50.6856 162.208 51.1616 162.208ZM50.5316 171H52.4356L57.9376 161.2H56.0196L50.5316 171ZM55.0956 168.886C55.0956 170.37 56.0476 171.168 57.3216 171.168C58.5816 171.168 59.5196 170.37 59.5196 168.886C59.5196 167.416 58.5816 166.618 57.3216 166.618C56.0476 166.618 55.0956 167.416 55.0956 168.886ZM57.3076 167.794C57.7836 167.794 58.0916 168.116 58.0916 168.886C58.0916 169.67 57.7836 169.992 57.3076 169.992C56.8176 169.992 56.5096 169.67 56.5096 168.886C56.5096 168.116 56.8176 167.794 57.3076 167.794Z" fill="black" fill-opacity="0.45"/>
<path d="M21.63 40.86H28.546V39.236H24.416C26.04 37.864 28.322 36.016 28.322 33.65C28.322 31.872 27.216 30.57 25.018 30.57C23.184 30.57 21.686 31.648 21.616 33.986H23.52C23.534 32.908 24.052 32.236 24.99 32.236C25.956 32.236 26.362 32.852 26.362 33.762C26.362 35.638 23.94 37.444 21.63 39.404V40.86ZM30.3131 30.766V36.758H32.1891C32.3991 36.128 32.9171 35.68 33.7291 35.68C34.8351 35.68 35.4091 36.31 35.4091 37.458C35.4091 38.536 34.8911 39.348 33.7431 39.348C32.7911 39.348 32.2171 38.83 32.0491 38.116H30.1451C30.3131 39.782 31.5731 41 33.7711 41C36.0951 41 37.2991 39.516 37.2991 37.43C37.2991 35.848 36.4871 34.056 34.1071 34.056C33.2531 34.056 32.4831 34.42 32.1051 34.882V32.488H36.6411V30.766H30.3131ZM38.5668 33.3C38.5668 34.77 39.5188 35.582 40.7928 35.582C42.0668 35.582 43.0188 34.77 43.0188 33.3C43.0188 31.844 42.0668 31.032 40.7928 31.032C39.5188 31.032 38.5668 31.844 38.5668 33.3ZM40.7788 32.208C41.2688 32.208 41.5768 32.53 41.5768 33.3C41.5768 34.07 41.2688 34.406 40.7788 34.406C40.3028 34.406 40.0088 34.07 40.0088 33.3C40.0088 32.53 40.3028 32.208 40.7788 32.208ZM40.1488 41H42.0528L47.5548 31.2H45.6368L40.1488 41ZM44.7128 38.886C44.7128 40.37 45.6648 41.168 46.9388 41.168C48.1988 41.168 49.1368 40.37 49.1368 38.886C49.1368 37.416 48.1988 36.618 46.9388 36.618C45.6648 36.618 44.7128 37.416 44.7128 38.886ZM46.9248 37.794C47.4008 37.794 47.7088 38.116 47.7088 38.886C47.7088 39.67 47.4008 39.992 46.9248 39.992C46.4348 39.992 46.1268 39.67 46.1268 38.886C46.1268 38.116 46.4348 37.794 46.9248 37.794Z" fill="black" fill-opacity="0.45"/>
<path d="M66 42.5H80.5L109 65.5M246 31.5H232.5L208 55M260.5 132.5H245.5L222 118M222 192H210.5L185 157M71.5 165.5H82.5L110 138.5" stroke="black"/>
<rect x="30" y="250" width="14" height="14" rx="4" fill="#ED3DD1"/>
<path d="M60.476 252.278H63.15V261H64.424V252.278H67.084V251.242H60.476V252.278ZM69.9262 256.828C69.9262 255.05 70.8502 254.504 72.0682 254.504H72.4042V253.188C71.1862 253.188 70.3602 253.72 69.9262 254.574V253.328H68.6522V261H69.9262V256.828ZM73.3989 257.136C73.3989 259.516 74.9809 261.126 77.0249 261.126C78.4389 261.126 79.4329 260.398 79.8949 259.572V261H81.1829V253.328H79.8949V254.728C79.4469 253.93 78.4669 253.202 77.0389 253.202C74.9809 253.202 73.3989 254.742 73.3989 257.136ZM79.8949 257.15C79.8949 258.956 78.6909 260.006 77.2909 260.006C75.8909 260.006 74.7009 258.942 74.7009 257.136C74.7009 255.33 75.8909 254.308 77.2909 254.308C78.6909 254.308 79.8949 255.372 79.8949 257.15ZM88.9498 261H90.2098V256.478C90.2098 254.28 88.8518 253.188 87.0738 253.188C86.0378 253.188 85.1138 253.622 84.6098 254.42V253.328H83.3358V261H84.6098V256.758C84.6098 255.106 85.5058 254.294 86.8078 254.294C88.0958 254.294 88.9498 255.092 88.9498 256.66V261ZM97.8069 258.914C97.7509 256.17 93.2989 257.164 93.2989 255.344C93.2989 254.728 93.8589 254.28 94.7969 254.28C95.8189 254.28 96.4069 254.84 96.4629 255.61H97.7369C97.6529 254.112 96.5329 253.202 94.8389 253.202C93.1309 253.202 92.0249 254.168 92.0249 255.344C92.0249 258.2 96.5609 257.206 96.5609 258.914C96.5609 259.544 96.0009 260.048 94.9929 260.048C93.9149 260.048 93.2569 259.488 93.1869 258.746H91.8709C91.9549 260.146 93.2149 261.126 95.0069 261.126C96.7009 261.126 97.8069 260.174 97.8069 258.914ZM100.879 254.742V253.328H99.6053V264.64H100.879V259.586C101.355 260.37 102.349 261.126 103.749 261.126C105.807 261.126 107.389 259.516 107.389 257.136C107.389 254.742 105.807 253.202 103.749 253.202C102.349 253.202 101.341 253.93 100.879 254.742ZM106.087 257.136C106.087 258.942 104.897 260.006 103.483 260.006C102.097 260.006 100.879 258.956 100.879 257.15C100.879 255.372 102.097 254.308 103.483 254.308C104.897 254.308 106.087 255.33 106.087 257.136ZM116.346 257.15C116.346 254.728 114.652 253.202 112.468 253.202C110.298 253.202 108.59 254.728 108.59 257.15C108.59 259.586 110.242 261.126 112.412 261.126C114.596 261.126 116.346 259.586 116.346 257.15ZM109.892 257.15C109.892 255.218 111.11 254.308 112.454 254.308C113.77 254.308 115.044 255.218 115.044 257.15C115.044 259.096 113.742 260.006 112.412 260.006C111.082 260.006 109.892 259.096 109.892 257.15ZM119.295 256.828C119.295 255.05 120.219 254.504 121.437 254.504H121.773V253.188C120.555 253.188 119.729 253.72 119.295 254.574V253.328H118.021V261H119.295V256.828ZM123.524 258.9C123.524 260.44 124.294 261 125.652 261H126.8V259.922H125.862C125.078 259.922 124.798 259.656 124.798 258.9V254.378H126.8V253.328H124.798V251.396H123.524V253.328H122.53V254.378H123.524V258.9Z" fill="black"/>
<rect x="30" y="221" width="14" height="14" rx="4" fill="#3C8AFF"/>
<path d="M61.078 232H62.352V227.604H65.796V226.568H62.352V223.278H66.594V222.242H61.078V232ZM75.4127 228.15C75.4127 225.728 73.7187 224.202 71.5347 224.202C69.3647 224.202 67.6567 225.728 67.6567 228.15C67.6567 230.586 69.3087 232.126 71.4787 232.126C73.6627 232.126 75.4127 230.586 75.4127 228.15ZM68.9587 228.15C68.9587 226.218 70.1767 225.308 71.5207 225.308C72.8367 225.308 74.1107 226.218 74.1107 228.15C74.1107 230.096 72.8087 231.006 71.4787 231.006C70.1487 231.006 68.9587 230.096 68.9587 228.15ZM84.3678 228.15C84.3678 225.728 82.6738 224.202 80.4898 224.202C78.3198 224.202 76.6118 225.728 76.6118 228.15C76.6118 230.586 78.2638 232.126 80.4338 232.126C82.6178 232.126 84.3678 230.586 84.3678 228.15ZM77.9138 228.15C77.9138 226.218 79.1318 225.308 80.4758 225.308C81.7918 225.308 83.0658 226.218 83.0658 228.15C83.0658 230.096 81.7638 231.006 80.4338 231.006C79.1038 231.006 77.9138 230.096 77.9138 228.15ZM85.5668 228.136C85.5668 230.516 87.1488 232.126 89.2068 232.126C90.6068 232.126 91.6008 231.412 92.0628 230.558V232H93.3508V221.64H92.0628V225.7C91.5308 224.818 90.4248 224.202 89.2208 224.202C87.1488 224.202 85.5668 225.742 85.5668 228.136ZM92.0628 228.15C92.0628 229.956 90.8588 231.006 89.4588 231.006C88.0588 231.006 86.8688 229.942 86.8688 228.136C86.8688 226.33 88.0588 225.308 89.4588 225.308C90.8588 225.308 92.0628 226.372 92.0628 228.15Z" fill="black"/>
<rect x="30" y="279" width="14" height="14" rx="4" fill="#FFEE54"/>
<path d="M61.078 290H62.352V280.242H61.078V290ZM70.1373 290H71.3973V285.478C71.3973 283.28 70.0393 282.188 68.2613 282.188C67.2253 282.188 66.3013 282.622 65.7973 283.42V282.328H64.5233V290H65.7973V285.758C65.7973 284.106 66.6933 283.294 67.9953 283.294C69.2833 283.294 70.1373 284.092 70.1373 285.66V290ZM72.5684 282.328L75.5784 290H77.0624L80.0724 282.328H78.7144L76.3344 288.824L73.9404 282.328H72.5684ZM84.588 283.28C85.904 283.28 87.024 284.106 87.01 285.604H82.166C82.306 284.106 83.342 283.28 84.588 283.28ZM88.172 287.634H86.8C86.52 288.46 85.792 289.048 84.644 289.048C83.342 289.048 82.25 288.194 82.152 286.64H88.284C88.312 286.374 88.326 286.15 88.326 285.87C88.326 283.77 86.87 282.202 84.644 282.202C82.404 282.202 80.85 283.728 80.85 286.15C80.85 288.586 82.46 290.126 84.644 290.126C86.548 290.126 87.78 289.034 88.172 287.634ZM95.5237 287.914C95.4677 285.17 91.0157 286.164 91.0157 284.344C91.0157 283.728 91.5757 283.28 92.5137 283.28C93.5357 283.28 94.1237 283.84 94.1797 284.61H95.4537C95.3697 283.112 94.2497 282.202 92.5557 282.202C90.8477 282.202 89.7417 283.168 89.7417 284.344C89.7417 287.2 94.2777 286.206 94.2777 287.914C94.2777 288.544 93.7177 289.048 92.7097 289.048C91.6317 289.048 90.9737 288.488 90.9037 287.746H89.5877C89.6717 289.146 90.9317 290.126 92.7237 290.126C94.4177 290.126 95.5237 289.174 95.5237 287.914ZM97.6021 287.9C97.6021 289.44 98.3721 290 99.7301 290H100.878V288.922H99.9401C99.1561 288.922 98.8761 288.656 98.8761 287.9V283.378H100.878V282.328H98.8761V280.396H97.6021V282.328H96.6081V283.378H97.6021V287.9ZM113.496 290H114.756V285.478C114.756 283.28 113.398 282.188 111.648 282.188C110.472 282.188 109.38 282.79 108.932 283.896C108.428 282.748 107.378 282.188 106.118 282.188C105.11 282.188 104.2 282.622 103.696 283.434V282.328H102.422V290H103.696V285.772C103.696 284.12 104.578 283.294 105.866 283.294C107.126 283.294 107.966 284.092 107.966 285.66V290H109.226V285.772C109.226 284.12 110.108 283.294 111.396 283.294C112.656 283.294 113.496 284.092 113.496 285.66V290ZM120.108 283.28C121.424 283.28 122.544 284.106 122.53 285.604H117.686C117.826 284.106 118.862 283.28 120.108 283.28ZM123.692 287.634H122.32C122.04 288.46 121.312 289.048 120.164 289.048C118.862 289.048 117.77 288.194 117.672 286.64H123.804C123.832 286.374 123.846 286.15 123.846 285.87C123.846 283.77 122.39 282.202 120.164 282.202C117.924 282.202 116.37 283.728 116.37 286.15C116.37 288.586 117.98 290.126 120.164 290.126C122.068 290.126 123.3 289.034 123.692 287.634ZM131.141 290H132.401V285.478C132.401 283.28 131.043 282.188 129.265 282.188C128.229 282.188 127.305 282.622 126.801 283.42V282.328H125.527V290H126.801V285.758C126.801 284.106 127.697 283.294 128.999 283.294C130.287 283.294 131.141 284.092 131.141 285.66V290ZM134.762 287.9C134.762 289.44 135.532 290 136.89 290H138.038V288.922H137.1C136.316 288.922 136.036 288.656 136.036 287.9V283.378H138.038V282.328H136.036V280.396H134.762V282.328H133.768V283.378H134.762V287.9Z" fill="black"/>
<rect x="182" y="221" width="14" height="14" rx="4" fill="#FF5166"/>
<path d="M218.3 225.112C218.3 226.204 217.67 226.988 216.228 226.988H214.352V223.292H216.228C217.684 223.292 218.3 224.006 218.3 225.112ZM213.078 222.242V232H214.352V228.01H215.892L218.216 232H219.742L217.292 227.912C218.93 227.548 219.616 226.358 219.616 225.112C219.616 223.516 218.524 222.242 216.228 222.242H213.078ZM224.858 225.28C226.174 225.28 227.294 226.106 227.28 227.604H222.436C222.576 226.106 223.612 225.28 224.858 225.28ZM228.442 229.634H227.07C226.79 230.46 226.062 231.048 224.914 231.048C223.612 231.048 222.52 230.194 222.422 228.64H228.554C228.582 228.374 228.596 228.15 228.596 227.87C228.596 225.77 227.14 224.202 224.914 224.202C222.674 224.202 221.12 225.728 221.12 228.15C221.12 230.586 222.73 232.126 224.914 232.126C226.818 232.126 228.05 231.034 228.442 229.634ZM235.891 232H237.151V227.478C237.151 225.28 235.793 224.188 234.015 224.188C232.979 224.188 232.055 224.622 231.551 225.42V224.328H230.277V232H231.551V227.758C231.551 226.106 232.447 225.294 233.749 225.294C235.037 225.294 235.891 226.092 235.891 227.66V232ZM239.512 229.9C239.512 231.44 240.282 232 241.64 232H242.788V230.922H241.85C241.066 230.922 240.786 230.656 240.786 229.9V225.378H242.788V224.328H240.786V222.396H239.512V224.328H238.518V225.378H239.512V229.9Z" fill="black"/>
<rect x="182" y="250" width="14" height="14" rx="4" fill="#2BC844"/>
<path d="M213.078 261H214.352V251.242H213.078V261ZM222.137 261H223.397V256.478C223.397 254.28 222.039 253.188 220.261 253.188C219.225 253.188 218.301 253.622 217.797 254.42V253.328H216.523V261H217.797V256.758C217.797 255.106 218.693 254.294 219.995 254.294C221.283 254.294 222.137 255.092 222.137 256.66V261ZM230.994 258.914C230.938 256.17 226.486 257.164 226.486 255.344C226.486 254.728 227.046 254.28 227.984 254.28C229.006 254.28 229.594 254.84 229.65 255.61H230.924C230.84 254.112 229.72 253.202 228.026 253.202C226.318 253.202 225.212 254.168 225.212 255.344C225.212 258.2 229.748 257.206 229.748 258.914C229.748 259.544 229.188 260.048 228.18 260.048C227.102 260.048 226.444 259.488 226.374 258.746H225.058C225.142 260.146 226.402 261.126 228.194 261.126C229.888 261.126 230.994 260.174 230.994 258.914ZM233.073 258.9C233.073 260.44 233.843 261 235.201 261H236.349V259.922H235.411C234.627 259.922 234.347 259.656 234.347 258.9V254.378H236.349V253.328H234.347V251.396H233.073V253.328H232.079V254.378H233.073V258.9ZM237.416 257.136C237.416 259.516 238.998 261.126 241.042 261.126C242.456 261.126 243.45 260.398 243.912 259.572V261H245.2V253.328H243.912V254.728C243.464 253.93 242.484 253.202 241.056 253.202C238.998 253.202 237.416 254.742 237.416 257.136ZM243.912 257.15C243.912 258.956 242.708 260.006 241.308 260.006C239.908 260.006 238.718 258.942 238.718 257.136C238.718 255.33 239.908 254.308 241.308 254.308C242.708 254.308 243.912 255.372 243.912 257.15ZM247.353 261H248.627V250.64H247.353V261ZM250.799 261H252.073V250.64H250.799V261ZM265.318 261H266.578V256.478C266.578 254.28 265.22 253.188 263.47 253.188C262.294 253.188 261.202 253.79 260.754 254.896C260.25 253.748 259.2 253.188 257.94 253.188C256.932 253.188 256.022 253.622 255.518 254.434V253.328H254.244V261H255.518V256.772C255.518 255.12 256.4 254.294 257.688 254.294C258.948 254.294 259.788 255.092 259.788 256.66V261H261.048V256.772C261.048 255.12 261.93 254.294 263.218 254.294C264.478 254.294 265.318 255.092 265.318 256.66V261ZM271.93 254.28C273.246 254.28 274.366 255.106 274.352 256.604H269.508C269.648 255.106 270.684 254.28 271.93 254.28ZM275.514 258.634H274.142C273.862 259.46 273.134 260.048 271.986 260.048C270.684 260.048 269.592 259.194 269.494 257.64H275.626C275.654 257.374 275.668 257.15 275.668 256.87C275.668 254.77 274.212 253.202 271.986 253.202C269.746 253.202 268.192 254.728 268.192 257.15C268.192 259.586 269.802 261.126 271.986 261.126C273.89 261.126 275.122 260.034 275.514 258.634ZM282.963 261H284.223V256.478C284.223 254.28 282.865 253.188 281.087 253.188C280.051 253.188 279.127 253.622 278.623 254.42V253.328H277.349V261H278.623V256.758C278.623 255.106 279.519 254.294 280.821 254.294C282.109 254.294 282.963 255.092 282.963 256.66V261ZM286.585 258.9C286.585 260.44 287.355 261 288.713 261H289.861V259.922H288.923C288.139 259.922 287.859 259.656 287.859 258.9V254.378H289.861V253.328H287.859V251.396H286.585V253.328H285.591V254.378H286.585V258.9Z" fill="black"/>
</svg>
