<svg width="404" height="476" viewBox="0 0 404 476" fill="none" xmlns="http://www.w3.org/2000/svg">
<g clip-path="url(#clip0_29_10)">
<path d="M-320.897 506.048L-325.717 518.955C-334.432 542.293 -319.273 572.449 -300.168 569.781L449.817 465.021C462.584 463.237 470.799 446.792 468.097 428.428L431.669 180.865C430.364 172.001 426.642 163.894 421.339 158.368L372.896 107.886C363.273 97.8572 350.635 98.4423 342.98 109.271L305.445 162.362C295.886 175.884 279.19 172.975 270.09 156.202L264.548 145.988C251.851 122.588 227.083 128.179 223.518 155.251L198.494 345.312C196.091 363.562 183.135 373.656 170.096 367.437L49.3685 309.86C37.0605 303.991 24.8437 313.577 22.6444 330.832C19.8662 352.627 1.7809 360.778 -11.4202 346.183L-95.3935 253.344C-107.024 240.485 -122.97 243.914 -129.395 260.657L-162.968 348.129C-167.556 360.085 -179.95 359.695 -185.9 347.408C-192.573 333.626 -206.781 335.229 -209.823 350.106L-239.751 496.478C-243.936 516.947 -261.226 524.06 -274.469 510.76L-287.781 497.392C-299.478 485.645 -314.771 489.642 -320.897 506.048Z" fill="url(#paint0_linear_29_10)"/>
<path d="M-347.147 576.343L-320.897 506.048C-314.771 489.642 -299.478 485.645 -287.781 497.391L-274.469 510.76C-261.226 524.06 -243.936 516.947 -239.75 496.478L-209.822 350.106C-206.78 335.229 -192.573 333.626 -185.9 347.408C-179.95 359.695 -167.556 360.085 -162.967 348.129L-129.395 260.657C-122.969 243.914 -107.024 240.485 -95.3933 253.344L-11.42 346.183C1.78108 360.778 19.8663 352.627 22.6445 330.832C24.8438 313.577 37.0607 303.991 49.3686 309.86L170.096 367.437C183.136 373.656 196.091 363.562 198.494 345.312L223.518 155.251C227.083 128.179 251.852 122.588 264.548 145.988L270.09 156.202C279.19 172.975 295.886 175.884 305.445 162.362L342.98 109.271C350.636 98.4423 363.273 97.8572 372.896 107.886L429.63 167.007" stroke="#2DE6FF" stroke-width="4"/>
</g>
<defs>
<linearGradient id="paint0_linear_29_10" x1="6.97013" y1="118.448" x2="62.929" y2="519.062" gradientUnits="userSpaceOnUse">
<stop stop-color="#2DE6FF"/>
<stop offset="1" stop-color="#2DC0FF" stop-opacity="0"/>
</linearGradient>
<clipPath id="clip0_29_10">
<rect width="404" height="476" fill="white"/>
</clipPath>
</defs>
</svg>
