<svg width="60" height="60" viewBox="0 0 60 60" fill="none" xmlns="http://www.w3.org/2000/svg">
<path d="M52.5 47.5V30.6675C52.5 29.3112 52.2241 27.969 51.689 26.7226C51.1539 25.4762 50.3709 24.3517 49.3875 23.4175L33.445 8.27503C32.5158 7.39224 31.283 6.90002 30.0012 6.90002C28.7195 6.90002 27.4867 7.39224 26.5575 8.27503L10.6125 23.4175C9.62913 24.3517 8.84609 25.4762 8.31101 26.7226C7.77593 27.969 7.5 29.3112 7.5 30.6675V47.5C7.5 48.8261 8.02678 50.0979 8.96447 51.0356C9.90215 51.9732 11.1739 52.5 12.5 52.5H47.5C48.8261 52.5 50.0979 51.9732 51.0355 51.0356C51.9732 50.0979 52.5 48.8261 52.5 47.5Z" stroke="white" stroke-width="2" stroke-linecap="round" stroke-linejoin="round"/>
</svg>
