<svg width="39" height="39" viewBox="0 0 39 39" fill="none" xmlns="http://www.w3.org/2000/svg">
<path d="M23.1562 17.0625C23.1562 16.0928 22.771 15.1628 22.0854 14.4771C21.3997 13.7915 20.4697 13.4062 19.5 13.4062C18.5303 13.4062 17.6003 13.7915 16.9146 14.4771C16.229 15.1628 15.8438 16.0928 15.8438 17.0625C15.8438 18.0322 16.229 18.9622 16.9146 19.6479C17.6003 20.3335 18.5303 20.7188 19.5 20.7188C20.4697 20.7188 21.3997 20.3335 22.0854 19.6479C22.771 18.9622 23.1562 18.0322 23.1562 17.0625V17.0625ZM34.125 17.0625C34.125 24.0679 26.5761 31.7265 22.3251 35.4851C21.5478 36.1793 20.5421 36.563 19.5 36.563C18.4579 36.563 17.4522 36.1793 16.6749 35.4851C12.4239 31.7265 4.875 24.0679 4.875 17.0625C4.875 15.1419 5.25329 13.2401 5.98826 11.4658C6.72324 9.69137 7.80051 8.07912 9.15856 6.72106C10.5166 5.36301 12.1289 4.28574 13.9033 3.55076C15.6776 2.81579 17.5794 2.4375 19.5 2.4375C21.4206 2.4375 23.3224 2.81579 25.0967 3.55076C26.8711 4.28574 28.4834 5.36301 29.8414 6.72106C31.1995 8.07912 32.2768 9.69137 33.0117 11.4658C33.7467 13.2401 34.125 15.1419 34.125 17.0625V17.0625ZM31.6875 17.0625C31.6875 13.8302 30.4035 10.7302 28.1179 8.44464C25.8323 6.15904 22.7323 4.875 19.5 4.875C16.2677 4.875 13.1677 6.15904 10.8821 8.44464C8.59654 10.7302 7.3125 13.8302 7.3125 17.0625C7.3125 19.7633 8.81156 22.9003 11.1394 26.0398C13.416 29.1062 16.2264 31.8338 18.2886 33.6594C18.6204 33.9602 19.0522 34.1268 19.5 34.1268C19.9478 34.1268 20.3796 33.9602 20.7114 33.6594C22.7736 31.8338 25.5864 29.1086 27.8606 26.0398C30.1884 22.9003 31.6875 19.7633 31.6875 17.0625Z" fill="white"/>
</svg>
