<svg width="36" height="36" viewBox="0 0 36 36" fill="none" xmlns="http://www.w3.org/2000/svg">
<g clip-path="url(#clip0_39_6)">
<path d="M33.91 18.47L30.78 8.41C30.654 8.0018 30.4005 7.64468 30.0568 7.39095C29.7131 7.13722 29.2972 7.00021 28.87 7H7.13C6.70279 7.00021 6.28687 7.13722 5.94316 7.39095C5.59946 7.64468 5.34603 8.0018 5.22 8.41L2.09 18.48C2.03066 18.6711 2.00032 18.8699 2 19.07V27C2 27.5304 2.21071 28.0391 2.58579 28.4142C2.96086 28.7893 3.46957 29 4 29H32C32.5304 29 33.0391 28.7893 33.4142 28.4142C33.7893 28.0391 34 27.5304 34 27V19.06C33.9997 18.8599 33.9693 18.6611 33.91 18.47V18.47ZM32 27H4V19.06L7.13 9H28.87L32 19.06V27Z" fill="white"/>
<path d="M7.12012 22H8.92012V25H7.12012V22Z" fill="white"/>
<path d="M12.1201 22H13.9201V25H12.1201V22Z" fill="white"/>
<path d="M17.1101 22H18.9101V25H17.1101V22Z" fill="white"/>
<path d="M22.1001 22H23.9001V25H22.1001V22Z" fill="white"/>
<path d="M27.1001 22H28.9001V25H27.1001V22Z" fill="white"/>
<path d="M6.22998 18H29.92V19.4H6.22998V18Z" fill="white"/>
</g>
<defs>
<clipPath id="clip0_39_6">
<rect width="36" height="36" fill="white"/>
</clipPath>
</defs>
</svg>
