<svg width="24" height="24" viewBox="0 0 24 24" fill="none" xmlns="http://www.w3.org/2000/svg">
<path d="M8.204 4.81997C8.38435 4.7359 8.59071 4.72691 8.77768 4.79499C8.96465 4.86306 9.11693 5.00262 9.201 5.18297C9.28507 5.36332 9.29406 5.56968 9.22599 5.75665C9.15791 5.94362 9.01835 6.0959 8.838 6.17997C7.54131 6.7842 6.44417 7.7462 5.67567 8.95281C4.90717 10.1594 4.49928 11.5604 4.5 12.991C4.5 17.139 7.858 20.501 11.999 20.501C16.14 20.501 19.498 17.139 19.498 12.991C19.4987 11.5632 19.0924 10.1649 18.3268 8.95979C17.5611 7.75471 16.4678 6.79286 15.175 6.18697C15.0853 6.14549 15.0047 6.08668 14.9378 6.01393C14.8709 5.94119 14.819 5.85593 14.7851 5.76307C14.7513 5.67021 14.7361 5.57158 14.7405 5.47284C14.7449 5.3741 14.7688 5.27721 14.8108 5.18773C14.8528 5.09825 14.912 5.01795 14.9851 4.95144C15.0582 4.88493 15.1438 4.83353 15.2368 4.80019C15.3298 4.76685 15.4286 4.75223 15.5273 4.75717C15.626 4.76211 15.7228 4.78651 15.812 4.82897C17.3628 5.55587 18.6743 6.70971 19.5928 8.15528C20.5113 9.60086 20.9987 11.2783 20.998 12.991C20.998 17.967 16.969 22.001 11.998 22.001C7.029 22 3 17.966 3 12.99C2.99937 11.274 3.48878 9.59347 4.41068 8.14614C5.33258 6.69881 6.64862 5.54484 8.204 4.81997V4.81997ZM12 2.49597C12.1812 2.49598 12.3563 2.56161 12.4929 2.68074C12.6295 2.79986 12.7184 2.96442 12.743 3.14397L12.75 3.24597V10.746C12.7499 10.936 12.6778 11.1189 12.548 11.2578C12.4183 11.3966 12.2407 11.481 12.0511 11.494C11.8615 11.5069 11.6741 11.4475 11.5267 11.3275C11.3793 11.2076 11.2829 11.0362 11.257 10.848L11.25 10.746V3.24597C11.25 3.04706 11.329 2.85629 11.4697 2.71564C11.6103 2.57499 11.8011 2.49597 12 2.49597V2.49597Z" fill="#FF3E3E"/>
</svg>
