<svg width="20" height="20" viewBox="0 0 20 20" fill="none" xmlns="http://www.w3.org/2000/svg">
<path d="M4 4.5C4 3.83696 4.26339 3.20107 4.73223 2.73223C5.20107 2.26339 5.83696 2 6.5 2H11.5C12.163 2 12.7989 2.26339 13.2678 2.73223C13.7366 3.20107 14 3.83696 14 4.5V5.113L15.891 4.083C16.0051 4.02079 16.1334 3.9893 16.2634 3.99162C16.3933 3.99394 16.5205 4.02999 16.6323 4.09623C16.7441 4.16248 16.8368 4.25664 16.9012 4.3695C16.9657 4.48236 16.9997 4.61003 17 4.74V9.258C17.0001 9.38814 16.9663 9.51606 16.902 9.6292C16.8377 9.74233 16.745 9.83678 16.6331 9.90326C16.5213 9.96974 16.394 10.006 16.2639 10.0084C16.1338 10.0108 16.0053 9.97929 15.891 9.917L14 8.887V9.5C14 9.8283 13.9353 10.1534 13.8097 10.4567C13.6841 10.76 13.4999 11.0356 13.2678 11.2678C13.0356 11.4999 12.76 11.6841 12.4567 11.8097C12.1534 11.9353 11.8283 12 11.5 12H6.5C5.83696 12 5.20107 11.7366 4.73223 11.2678C4.26339 10.7989 4 10.163 4 9.5V4.5ZM14 7.748L16 8.838V5.162L14 6.252V7.748V7.748ZM6.5 3C6.10218 3 5.72064 3.15804 5.43934 3.43934C5.15804 3.72064 5 4.10218 5 4.5V9.5C5 9.89782 5.15804 10.2794 5.43934 10.5607C5.72064 10.842 6.10218 11 6.5 11H11.5C11.8978 11 12.2794 10.842 12.5607 10.5607C12.842 10.2794 13 9.89782 13 9.5V4.5C13 4.10218 12.842 3.72064 12.5607 3.43934C12.2794 3.15804 11.8978 3 11.5 3H6.5ZM3.67 11.889C3.37497 11.9977 3.09128 12.135 2.823 12.299C2.408 12.56 2 12.954 2 13.5C2 14.046 2.408 14.44 2.823 14.701C3.263 14.979 3.866 15.211 4.568 15.397C5.978 15.773 7.898 16 10 16C10.098 16 10.197 16 10.294 15.998L9.146 17.146C9.05211 17.2399 8.99937 17.3672 8.99937 17.5C8.99937 17.6328 9.05211 17.7601 9.146 17.854C9.23989 17.9479 9.36722 18.0006 9.5 18.0006C9.63278 18.0006 9.76011 17.9479 9.854 17.854L11.854 15.854C11.9006 15.8076 11.9375 15.7524 11.9627 15.6916C11.9879 15.6309 12.0009 15.5658 12.0009 15.5C12.0009 15.4342 11.9879 15.3691 11.9627 15.3084C11.9375 15.2476 11.9006 15.1924 11.854 15.146L9.854 13.146C9.80751 13.0995 9.75232 13.0626 9.69158 13.0375C9.63084 13.0123 9.56574 12.9994 9.5 12.9994C9.43426 12.9994 9.36916 13.0123 9.30842 13.0375C9.24768 13.0626 9.19249 13.0995 9.146 13.146C9.09951 13.1925 9.06264 13.2477 9.03748 13.3084C9.01232 13.3692 8.99937 13.4343 8.99937 13.5C8.99937 13.5657 9.01232 13.6308 9.03748 13.6916C9.06264 13.7523 9.09951 13.8075 9.146 13.854L10.291 14.999C10.194 14.9998 10.097 15.0002 10 15C7.96 15 6.13 14.779 4.826 14.431C4.17 14.256 3.675 14.057 3.356 13.856C3.012 13.639 3 13.506 3 13.5C3 13.494 3.012 13.361 3.356 13.145C3.633 12.97 4.042 12.797 4.573 12.64C4.22529 12.4514 3.91812 12.1962 3.669 11.889H3.67ZM13.924 12.302C14.217 12.057 14.462 11.758 14.644 11.419C14.921 11.475 15.184 11.537 15.432 11.603C16.134 11.79 16.737 12.021 17.177 12.299C17.592 12.56 18 12.954 18 13.5C18 14.046 17.592 14.44 17.177 14.701C16.737 14.979 16.134 15.211 15.432 15.397C15.166 15.468 14.882 15.534 14.582 15.594C14.5107 15.6076 14.4374 15.6053 14.3671 15.5871C14.2969 15.5689 14.2316 15.5353 14.1759 15.4888C14.1202 15.4423 14.0756 15.384 14.0451 15.3182C14.0147 15.2523 13.9993 15.1805 14 15.108C14 14.863 14.176 14.655 14.415 14.608C14.685 14.553 14.938 14.494 15.175 14.431C15.83 14.256 16.325 14.057 16.644 13.856C16.988 13.639 17 13.506 17 13.5C17 13.494 16.988 13.361 16.644 13.145C16.325 12.943 15.83 12.744 15.174 12.569C14.799 12.469 14.379 12.379 13.924 12.302V12.302Z" fill="white"/>
</svg>
